# xmcd
#
# Track frame offsets:
# 150
# 11967
# 24265
# 37827
# 50665
# 65715
# 83785
# 95557
# 108670
# 119335
# 135932
#
# Disc length: 2010 seconds
#
# Revision: 0
# Processed by: cddbd v1.5.1PL0 Copyright (c) Steve Scherf et al.
# Submitted via: Audion 3.0.2 (http://www.panic.com/audion/)
#
DISCID=8e07d80b
DTITLE=Percy Mayfield - Walking On A Tightrope
DYEAR=1900
DGENRE=
TTITLE0=Walking On A Tightrope
TTITLE1=I Made It Just The Same
TTITLE2=My Pain Is Here To Stay
TTITLE3=Alma Lee
TTITLE4=Please Send Me Someone To Love
TTITLE5=P.M. Blues
TTITLE6=My Mind Is Trying To Leave Me
TTITLE7=Danger Zone
TTITLE8='Sho Gonna Leave You Alone
TTITLE9=My Baby's Gone
TTITLE10=To Me Your Name Is Love
EXTD=
EXTT0=
EXTT1=
EXTT2=
EXTT3=
EXTT4=
EXTT5=
EXTT6=
EXTT7=
EXTT8=
EXTT9=
EXTT10=
PLAYORDER=
